<svg xmlns="http://www.w3.org/2000/svg" xmlns:xlink="http://www.w3.org/1999/xlink" width="500" zoomAndPan="magnify" viewBox="0 0 375 374.999991" height="500" preserveAspectRatio="xMidYMid meet" version="1.0"><defs><g/></defs><g fill="#000000" fill-opacity="1"><g transform="translate(32.690262, 147.695828)"><g><path d="M -20.046875 -10.078125 L -17.921875 -16.359375 C -17.359375 -18.003906 -16.582031 -19.410156 -15.59375 -20.578125 C -14.613281 -21.753906 -13.476562 -22.675781 -12.1875 -23.34375 C -10.90625 -24.019531 -9.535156 -24.40625 -8.078125 -24.5 C -6.617188 -24.601562 -5.144531 -24.40625 -3.65625 -23.90625 C -2.09375 -23.375 -0.765625 -22.597656 0.328125 -21.578125 C 1.429688 -20.554688 2.273438 -19.378906 2.859375 -18.046875 C 3.453125 -16.722656 3.773438 -15.300781 3.828125 -13.78125 C 3.878906 -12.269531 3.644531 -10.742188 3.125 -9.203125 L 1 -2.921875 Z M -0.328125 -5.84375 L 1.015625 -9.8125 C 1.617188 -11.59375 1.785156 -13.269531 1.515625 -14.84375 C 1.242188 -16.425781 0.601562 -17.804688 -0.40625 -18.984375 C -1.425781 -20.160156 -2.753906 -21.03125 -4.390625 -21.59375 C -6.003906 -22.132812 -7.570312 -22.257812 -9.09375 -21.96875 C -10.613281 -21.675781 -11.972656 -20.988281 -13.171875 -19.90625 C -14.378906 -18.820312 -15.289062 -17.363281 -15.90625 -15.53125 L -17.25 -11.59375 Z M -0.328125 -5.84375 "/></g></g></g><g fill="#000000" fill-opacity="1"><g transform="translate(47.086144, 111.511189)"><g><path d="M 1.328125 -2.078125 L 0.046875 -0.0625 L -13.515625 -20.140625 L -12.09375 -22.375 L 11.8125 -18.46875 L 10.484375 -16.390625 L 4.390625 -17.421875 L -2.140625 -7.203125 Z M 2.125 -17.796875 L -10.796875 -19.921875 L -3.453125 -9.09375 Z M 2.125 -17.796875 "/></g></g></g><g fill="#000000" fill-opacity="1"><g transform="translate(69.160887, 80.572447)"><g><path d="M -14.90625 -16.515625 L -13.03125 -18.296875 L 6.046875 -9.453125 L -1.90625 -28.953125 L -0.09375 -30.6875 L 8.828125 -8.453125 L 6.921875 -6.640625 Z M -14.90625 -16.515625 "/></g></g></g><g fill="#000000" fill-opacity="1"><g transform="translate(97.868866, 55.853987)"><g><path d="M 4.40625 -25.9375 L -5.5625 -20.03125 L -1.640625 -13.421875 L 7.46875 -18.828125 L 8.578125 -16.96875 L -0.53125 -11.5625 L 3.578125 -4.625 L 13.640625 -10.59375 L 14.734375 -8.734375 L 2.65625 -1.578125 L -8.671875 -20.703125 L 3.3125 -27.796875 Z M 4.40625 -25.9375 "/></g></g></g><g fill="#000000" fill-opacity="1"><g transform="translate(129.208319, 39.664105)"><g/></g></g><g fill="#000000" fill-opacity="1"><g transform="translate(152.36657, 32.242411)"><g><path d="M 15.984375 -24.890625 L 18 -11.5 C 18.414062 -8.726562 18.019531 -6.457031 16.8125 -4.6875 C 15.601562 -2.914062 13.6875 -1.832031 11.0625 -1.4375 C 9.289062 -1.164062 7.738281 -1.296875 6.40625 -1.828125 C 5.070312 -2.367188 3.984375 -3.25 3.140625 -4.46875 C 2.304688 -5.6875 1.757812 -7.15625 1.5 -8.875 L -0.53125 -22.40625 L 1.765625 -22.75 L 3.78125 -9.328125 C 4.019531 -7.742188 4.484375 -6.503906 5.171875 -5.609375 C 5.859375 -4.722656 6.691406 -4.125 7.671875 -3.8125 C 8.648438 -3.507812 9.703125 -3.441406 10.828125 -3.609375 C 12.722656 -3.898438 14.085938 -4.691406 14.921875 -5.984375 C 15.765625 -7.273438 16.035156 -8.941406 15.734375 -10.984375 L 13.6875 -24.546875 Z M 15.984375 -24.890625 "/></g></g></g><g fill="#000000" fill-opacity="1"><g transform="translate(190.845726, 28.784116)"><g/></g></g><g fill="#000000" fill-opacity="1"><g transform="translate(215.141487, 30.981735)"><g><path d="M 21.234375 -15.5625 L 9.953125 -18.265625 L 8.15625 -10.78125 L 18.46875 -8.3125 L 17.96875 -6.203125 L 7.65625 -8.671875 L 5.765625 -0.828125 L 17.15625 1.90625 L 16.65625 4 L 3.015625 0.71875 L 8.203125 -20.90625 L 21.734375 -17.65625 Z M 21.234375 -15.5625 "/></g></g></g><g fill="#000000" fill-opacity="1"><g transform="translate(248.763945, 40.954076)"><g><path d="M 7.21875 1.296875 C 8.375 1.847656 9.445312 1.929688 10.4375 1.546875 C 11.4375 1.160156 12.222656 0.375 12.796875 -0.8125 L 19.703125 -15.203125 L 21.8125 -14.1875 L 14.9375 0.125 C 14.070312 1.925781 12.863281 3.117188 11.3125 3.703125 C 9.757812 4.285156 8.097656 4.148438 6.328125 3.296875 C 5.085938 2.703125 4.144531 1.804688 3.5 0.609375 C 2.851562 -0.578125 2.609375 -2.03125 2.765625 -3.75 L 4.953125 -3.890625 C 4.734375 -1.253906 5.488281 0.472656 7.21875 1.296875 Z M 7.21875 1.296875 "/></g></g></g><g fill="#000000" fill-opacity="1"><g transform="translate(277.436867, 56.499239)"><g><path d="M 25.75 -5.421875 L 16.59375 -12.53125 L 11.890625 -6.453125 L 20.25 0.046875 L 18.90625 1.765625 L 10.546875 -4.734375 L 5.609375 1.625 L 14.84375 8.796875 L 13.515625 10.5 L 2.4375 1.890625 L 16.078125 -15.671875 L 27.078125 -7.125 Z M 25.75 -5.421875 "/></g></g></g><g fill="#000000" fill-opacity="1"><g transform="translate(303.960801, 79.37456)"><g><path d="M 2.296875 -0.59375 L 24.59375 -1.828125 L 16.4375 -11.6875 L 18.078125 -13.046875 L 27.984375 -1.09375 L 26.34375 0.265625 L 4.03125 1.484375 L 12.546875 11.78125 L 10.890625 13.15625 L 0.640625 0.78125 Z M 2.296875 -0.59375 "/></g></g></g><g fill="#000000" fill-opacity="1"><g transform="translate(324.535237, 107.326923)"><g><path d="M 2.625 4.75 L 1.5 2.703125 L 20.96875 -8.046875 L 22.09375 -6 Z M 2.625 4.75 "/></g></g></g><g fill="#000000" fill-opacity="1"><g transform="translate(335.65736, 129.69306)"><g><path d="M 24.375 9.953125 L 20.78125 -1.0625 L 13.46875 1.3125 L 16.75 11.375 L 14.6875 12.046875 L 11.40625 1.984375 L 3.734375 4.484375 L 7.359375 15.609375 L 5.3125 16.28125 L 0.953125 2.9375 L 22.09375 -3.953125 L 26.421875 9.28125 Z M 24.375 9.953125 "/></g></g></g><g fill="#000000" fill-opacity="1"><g transform="translate(11.143567, 225.485101)"><g><path d="M 16.21875 3.265625 L 11.921875 1.53125 L 12.546875 -0.015625 L 16.84375 1.65625 L 17.15625 -2.96875 L 18.84375 -2.828125 L 18.53125 1.8125 L 23.109375 0.625 L 23.53125 2.25 L 18.953125 3.4375 L 21.453125 7.375 L 20.046875 8.296875 L 17.546875 4.421875 L 14.59375 7.9375 L 13.296875 6.890625 Z M 16.21875 3.265625 "/></g></g></g><g fill="#000000" fill-opacity="1"><g transform="translate(21.518831, 258.178509)"><g><path d="M 16.546875 0.078125 L 11.984375 -0.796875 L 12.296875 -2.4375 L 16.859375 -1.609375 L 16.265625 -6.21875 L 17.9375 -6.40625 L 18.53125 -1.796875 L 22.8125 -3.828125 L 23.53125 -2.3125 L 19.25 -0.28125 L 22.46875 3.09375 L 21.265625 4.28125 L 18.078125 0.953125 L 15.828125 4.984375 L 14.359375 4.203125 Z M 16.546875 0.078125 "/></g></g></g><g fill="#000000" fill-opacity="1"><g transform="translate(37.935483, 288.598404)"><g><path d="M 19.421875 -11.25 L 23.5 -6.03125 C 24.570312 -4.65625 25.328125 -3.234375 25.765625 -1.765625 C 26.210938 -0.296875 26.363281 1.15625 26.21875 2.59375 C 26.070312 4.03125 25.640625 5.382812 24.921875 6.65625 C 24.210938 7.9375 23.242188 9.0625 22.015625 10.03125 C 20.710938 11.050781 19.332031 11.742188 17.875 12.109375 C 16.425781 12.472656 14.984375 12.535156 13.546875 12.296875 C 12.109375 12.054688 10.738281 11.539062 9.4375 10.75 C 8.132812 9.96875 6.984375 8.9375 5.984375 7.65625 L 1.90625 2.4375 Z M 5.0625 2.921875 L 7.640625 6.234375 C 8.796875 7.710938 10.109375 8.769531 11.578125 9.40625 C 13.054688 10.050781 14.566406 10.269531 16.109375 10.0625 C 17.648438 9.851562 19.101562 9.21875 20.46875 8.15625 C 21.8125 7.113281 22.78125 5.875 23.375 4.4375 C 23.96875 3 24.140625 1.484375 23.890625 -0.109375 C 23.640625 -1.710938 22.914062 -3.273438 21.71875 -4.796875 L 19.15625 -8.09375 Z M 5.0625 2.921875 "/></g></g></g><g fill="#000000" fill-opacity="1"><g transform="translate(66.547039, 320.98916)"><g><path d="M 25.828125 -5.03125 L 16.78125 -12.28125 L 11.984375 -6.28125 L 20.25 0.34375 L 18.890625 2.03125 L 10.625 -4.59375 L 5.578125 1.703125 L 14.71875 9.015625 L 13.375 10.703125 L 2.421875 1.9375 L 16.3125 -15.421875 L 27.171875 -6.71875 Z M 25.828125 -5.03125 "/></g></g></g><g fill="#000000" fill-opacity="1"><g transform="translate(98.36348, 343.70778)"><g><path d="M 10.1875 -19.78125 L 12.515625 -18.671875 L 10.984375 2.328125 L 26.40625 -12.015625 L 28.671875 -10.921875 L 11.015625 5.28125 L 8.65625 4.140625 Z M 10.1875 -19.78125 "/></g></g></g><g fill="#000000" fill-opacity="1"><g transform="translate(137.275916, 359.587582)"><g><path d="M 20.953125 -15.9375 L 9.640625 -18.4375 L 7.96875 -10.921875 L 18.3125 -8.640625 L 17.84375 -6.53125 L 7.5 -8.8125 L 5.765625 -0.9375 L 17.1875 1.59375 L 16.71875 3.703125 L 3.015625 0.671875 L 7.8125 -21.03125 L 21.40625 -18.03125 Z M 20.953125 -15.9375 "/></g></g></g><g fill="#000000" fill-opacity="1"><g transform="translate(175.713174, 365.77518)"><g><path d="M 5.4375 -2.15625 L 15.984375 -2.109375 L 15.96875 0.078125 L 3.09375 0.015625 L 3.203125 -22.21875 L 5.53125 -22.203125 Z M 5.4375 -2.15625 "/></g></g></g><g fill="#000000" fill-opacity="1"><g transform="translate(212.533454, 364.099053)"><g><path d="M 20.734375 -16.296875 C 21.097656 -14.753906 21.164062 -13.242188 20.9375 -11.765625 C 20.707031 -10.285156 20.210938 -8.921875 19.453125 -7.671875 C 18.703125 -6.429688 17.726562 -5.367188 16.53125 -4.484375 C 15.332031 -3.609375 13.953125 -2.988281 12.390625 -2.625 C 10.835938 -2.269531 9.335938 -2.222656 7.890625 -2.484375 C 6.441406 -2.742188 5.113281 -3.253906 3.90625 -4.015625 C 2.695312 -4.785156 1.664062 -5.769531 0.8125 -6.96875 C -0.0390625 -8.175781 -0.648438 -9.554688 -1.015625 -11.109375 C -1.367188 -12.660156 -1.425781 -14.171875 -1.1875 -15.640625 C -0.957031 -17.109375 -0.46875 -18.460938 0.28125 -19.703125 C 1.039062 -20.953125 2.015625 -22.019531 3.203125 -22.90625 C 4.398438 -23.789062 5.78125 -24.410156 7.34375 -24.765625 C 8.894531 -25.128906 10.394531 -25.179688 11.84375 -24.921875 C 13.289062 -24.671875 14.617188 -24.160156 15.828125 -23.390625 C 17.035156 -22.617188 18.066406 -21.632812 18.921875 -20.4375 C 19.773438 -19.238281 20.378906 -17.859375 20.734375 -16.296875 Z M 18.40625 -15.609375 C 18.125 -16.828125 17.65625 -17.925781 17 -18.90625 C 16.34375 -19.894531 15.53125 -20.71875 14.5625 -21.375 C 13.601562 -22.039062 12.539062 -22.484375 11.375 -22.703125 C 10.21875 -22.929688 9.015625 -22.898438 7.765625 -22.609375 C 6.523438 -22.328125 5.4375 -21.832031 4.5 -21.125 C 3.5625 -20.425781 2.8125 -19.578125 2.25 -18.578125 C 1.6875 -17.585938 1.316406 -16.507812 1.140625 -15.34375 C 0.972656 -14.1875 1.03125 -13 1.3125 -11.78125 C 1.59375 -10.570312 2.066406 -9.472656 2.734375 -8.484375 C 3.410156 -7.492188 4.222656 -6.671875 5.171875 -6.015625 C 6.128906 -5.359375 7.191406 -4.914062 8.359375 -4.6875 C 9.523438 -4.46875 10.734375 -4.5 11.984375 -4.78125 C 13.242188 -5.070312 14.332031 -5.566406 15.25 -6.265625 C 16.175781 -6.972656 16.925781 -7.820312 17.5 -8.8125 C 18.070312 -9.8125 18.4375 -10.890625 18.59375 -12.046875 C 18.75 -13.203125 18.6875 -14.390625 18.40625 -15.609375 Z M 18.40625 -15.609375 "/></g></g></g><g fill="#000000" fill-opacity="1"><g transform="translate(256.364349, 351.045963)"><g><path d="M 2.765625 -1.390625 L -7.28125 -21.21875 L -0.65625 -24.59375 C 0.96875 -25.414062 2.4375 -25.804688 3.75 -25.765625 C 5.0625 -25.722656 6.1875 -25.367188 7.125 -24.703125 C 8.070312 -24.046875 8.804688 -23.203125 9.328125 -22.171875 C 9.890625 -21.046875 10.132812 -19.878906 10.0625 -18.671875 C 9.988281 -17.472656 9.546875 -16.316406 8.734375 -15.203125 C 7.929688 -14.097656 6.726562 -13.140625 5.125 -12.328125 L 0.921875 -10.203125 L 4.84375 -2.453125 Z M -0.0625 -12.125 L 4.203125 -14.28125 C 5.421875 -14.90625 6.300781 -15.613281 6.84375 -16.40625 C 7.394531 -17.207031 7.6875 -18.007812 7.71875 -18.8125 C 7.75 -19.613281 7.59375 -20.351562 7.25 -21.03125 C 6.914062 -21.6875 6.441406 -22.25 5.828125 -22.71875 C 5.222656 -23.195312 4.453125 -23.453125 3.515625 -23.484375 C 2.578125 -23.523438 1.460938 -23.21875 0.171875 -22.5625 L -4.21875 -20.34375 Z M -0.0625 -12.125 "/></g></g></g><g fill="#000000" fill-opacity="1"><g transform="translate(290.522, 331.212276)"><g><path d="M 0.34375 -26.3125 L -8.59375 -18.9375 L -3.703125 -13.015625 L 4.453125 -19.765625 L 5.84375 -18.078125 L -2.3125 -11.328125 L 2.8125 -5.109375 L 11.828125 -12.5625 L 13.203125 -10.90625 L 2.390625 -1.96875 L -11.765625 -19.109375 L -1.03125 -27.96875 Z M 0.34375 -26.3125 "/></g></g></g><g fill="#000000" fill-opacity="1"><g transform="translate(319.205611, 304.711844)"><g><path d="M -3.8125 -9.78125 L 3.3125 -4.296875 L 1.890625 -2.453125 L -15.734375 -16.015625 L -11.046875 -22.125 C -9.929688 -23.550781 -8.785156 -24.535156 -7.609375 -25.078125 C -6.441406 -25.628906 -5.300781 -25.820312 -4.1875 -25.65625 C -3.082031 -25.5 -2.070312 -25.066406 -1.15625 -24.359375 C -0.144531 -23.585938 0.546875 -22.703125 0.921875 -21.703125 C 1.296875 -20.710938 1.40625 -19.695312 1.25 -18.65625 C 1.09375 -17.625 0.734375 -16.617188 0.171875 -15.640625 L 11.8125 -15.359375 L 10.078125 -13.09375 L -1.046875 -13.390625 Z M -5.515625 -11.09375 L -2.359375 -15.1875 C -1.546875 -16.25 -1.054688 -17.242188 -0.890625 -18.171875 C -0.734375 -19.109375 -0.816406 -19.941406 -1.140625 -20.671875 C -1.472656 -21.398438 -1.9375 -21.988281 -2.53125 -22.4375 C -3.101562 -22.882812 -3.757812 -23.175781 -4.5 -23.3125 C -5.238281 -23.445312 -6.019531 -23.320312 -6.84375 -22.9375 C -7.675781 -22.550781 -8.523438 -21.796875 -9.390625 -20.671875 L -12.578125 -16.53125 Z M -5.515625 -11.09375 "/></g></g></g><g fill="#000000" fill-opacity="1"><g transform="translate(341.924883, 271.186232)"><g><path d="M -10.359375 -12.890625 L -8.171875 -8.796875 L -9.640625 -8.03125 L -11.859375 -12.078125 L -15.078125 -8.71875 L -16.28125 -9.90625 L -13.0625 -13.265625 L -17.34375 -15.296875 L -16.625 -16.8125 L -12.34375 -14.78125 L -11.75 -19.40625 L -10.078125 -19.21875 L -10.640625 -14.640625 L -6.109375 -15.453125 L -5.796875 -13.796875 Z M -10.359375 -12.890625 "/></g></g></g><g fill="#000000" fill-opacity="1"><g transform="translate(354.91618, 239.44144)"><g><path d="M -12.65625 -10.671875 L -9.703125 -7.0625 L -11.015625 -6.015625 L -13.96875 -9.5625 L -16.46875 -5.65625 L -17.875 -6.578125 L -15.375 -10.5 L -19.953125 -11.6875 L -19.53125 -13.3125 L -14.953125 -12.125 L -15.265625 -16.78125 L -13.578125 -16.921875 L -13.265625 -12.328125 L -8.96875 -13.96875 L -8.328125 -12.421875 Z M -12.65625 -10.671875 "/></g></g></g><g fill="#000000" fill-opacity="1"><g transform="translate(220.980267, 229.515314)"><g><path d="M 67.640625 -85.203125 L 67.640625 -74.234375 L 23.6875 -74.234375 L 23.6875 -48.3125 L 62.921875 -48.3125 L 62.921875 -37.359375 L 23.6875 -37.359375 L 23.6875 -11.078125 L 69.296875 -11.078125 L 69.296875 0 L 12.25 0 L 12.25 -85.203125 Z M 67.640625 -85.203125 "/></g></g></g><g fill="#000000" fill-opacity="1"><g transform="translate(70.524844, 229.515314)"><g><path d="M 12.25 -85.203125 L 35.59375 -85.203125 C 46.195312 -85.203125 54.972656 -83.097656 61.921875 -78.890625 C 68.878906 -74.691406 73.945312 -69.269531 77.125 -62.625 C 80.3125 -55.988281 81.90625 -48.976562 81.90625 -41.59375 C 81.90625 -33.34375 79.976562 -26.054688 76.125 -19.734375 C 72.28125 -13.410156 67.132812 -8.539062 60.6875 -5.125 C 54.25 -1.707031 47.257812 0 39.71875 0 L 12.25 0 Z M 37.46875 -11.078125 C 43.757812 -11.078125 49.378906 -12.3125 54.328125 -14.78125 C 59.273438 -17.257812 63.140625 -20.851562 65.921875 -25.5625 C 68.710938 -30.28125 70.109375 -35.898438 70.109375 -42.421875 C 70.109375 -49.097656 68.65625 -54.832031 65.75 -59.625 C 62.84375 -64.414062 58.972656 -68.046875 54.140625 -70.515625 C 49.316406 -72.992188 44.113281 -74.234375 38.53125 -74.234375 L 23.6875 -74.234375 L 23.6875 -11.078125 Z M 37.46875 -11.078125 "/></g></g></g><path stroke-linecap="butt" transform="matrix(0, -0.75, 0.75, 0, 185.379324, 283.85714)" fill="none" stroke-linejoin="miter" d="M 0.00222801 1.999444 L 253.366828 1.999444 " stroke="#000000" stroke-width="4" stroke-opacity="1" stroke-miterlimit="4"/></svg>