<svg xmlns="http://www.w3.org/2000/svg" xmlns:xlink="http://www.w3.org/1999/xlink" width="200" zoomAndPan="magnify" viewBox="0 0 375 374.999991" height="200" preserveAspectRatio="xMidYMid meet" version="1.0"><defs><g/></defs><g fill="#000000" fill-opacity="1"><g transform="translate(115.597876, 168.311176)"><g><path d="M -9.359375 -4.703125 L -8.375 -7.640625 C -8.113281 -8.398438 -7.75 -9.054688 -7.28125 -9.609375 C -6.8125 -10.160156 -6.28125 -10.585938 -5.6875 -10.890625 C -5.09375 -11.203125 -4.457031 -11.378906 -3.78125 -11.421875 C -3.101562 -11.472656 -2.410156 -11.378906 -1.703125 -11.140625 C -0.972656 -10.890625 -0.351562 -10.53125 0.15625 -10.0625 C 0.664062 -9.59375 1.0625 -9.046875 1.34375 -8.421875 C 1.625 -7.796875 1.773438 -7.128906 1.796875 -6.421875 C 1.816406 -5.722656 1.703125 -5.015625 1.453125 -4.296875 L 0.46875 -1.359375 Z M -0.15625 -2.71875 L 0.46875 -4.578125 C 0.75 -5.398438 0.828125 -6.179688 0.703125 -6.921875 C 0.578125 -7.671875 0.28125 -8.316406 -0.1875 -8.859375 C -0.65625 -9.410156 -1.273438 -9.816406 -2.046875 -10.078125 C -2.796875 -10.328125 -3.523438 -10.378906 -4.234375 -10.234375 C -4.941406 -10.097656 -5.578125 -9.78125 -6.140625 -9.28125 C -6.703125 -8.78125 -7.128906 -8.109375 -7.421875 -7.265625 L -8.046875 -5.40625 Z M -0.15625 -2.71875 "/></g></g></g><g fill="#000000" fill-opacity="1"><g transform="translate(122.310909, 151.4377)"><g><path d="M 0.625 -0.96875 L 0.03125 -0.046875 L -6.296875 -9.390625 L -5.640625 -10.4375 L 5.515625 -8.625 L 4.890625 -7.640625 L 2.046875 -8.140625 L -1 -3.375 Z M 1 -8.3125 L -5.046875 -9.28125 L -1.609375 -4.25 Z M 1 -8.3125 "/></g></g></g><g fill="#000000" fill-opacity="1"><g transform="translate(132.604708, 137.010472)"><g><path d="M -6.953125 -7.71875 L -6.078125 -8.546875 L 2.8125 -4.40625 L -0.890625 -13.515625 L -0.046875 -14.328125 L 4.125 -3.9375 L 3.234375 -3.09375 Z M -6.953125 -7.71875 "/></g></g></g><g fill="#000000" fill-opacity="1"><g transform="translate(145.991687, 125.483862)"><g><path d="M 2.046875 -12.109375 L -2.609375 -9.359375 L -0.78125 -6.265625 L 3.46875 -8.78125 L 4 -7.90625 L -0.25 -5.390625 L 1.65625 -2.15625 L 6.359375 -4.9375 L 6.875 -4.078125 L 1.234375 -0.734375 L -4.0625 -9.65625 L 1.53125 -12.96875 Z M 2.046875 -12.109375 "/></g></g></g><g fill="#000000" fill-opacity="1"><g transform="translate(160.605767, 117.934264)"><g/></g></g><g fill="#000000" fill-opacity="1"><g transform="translate(171.404839, 114.473407)"><g><path d="M 7.453125 -11.625 L 8.390625 -5.359375 C 8.585938 -4.066406 8.40625 -3.003906 7.84375 -2.171875 C 7.28125 -1.347656 6.382812 -0.847656 5.15625 -0.671875 C 4.332031 -0.546875 3.609375 -0.609375 2.984375 -0.859375 C 2.359375 -1.109375 1.851562 -1.515625 1.46875 -2.078125 C 1.082031 -2.648438 0.828125 -3.335938 0.703125 -4.140625 L -0.25 -10.46875 L 0.8125 -10.625 L 1.75 -4.359375 C 1.863281 -3.617188 2.082031 -3.035156 2.40625 -2.609375 C 2.726562 -2.191406 3.117188 -1.914062 3.578125 -1.78125 C 4.035156 -1.644531 4.523438 -1.613281 5.046875 -1.6875 C 5.921875 -1.820312 6.554688 -2.191406 6.953125 -2.796875 C 7.347656 -3.398438 7.472656 -4.175781 7.328125 -5.125 L 6.375 -11.46875 Z M 7.453125 -11.625 "/></g></g></g><g fill="#000000" fill-opacity="1"><g transform="translate(189.348272, 112.860753)"><g/></g></g><g fill="#000000" fill-opacity="1"><g transform="translate(200.677774, 113.885543)"><g><path d="M 9.90625 -7.265625 L 4.65625 -8.515625 L 3.8125 -5.03125 L 8.609375 -3.890625 L 8.375 -2.90625 L 3.578125 -4.046875 L 2.703125 -0.375 L 8 0.890625 L 7.765625 1.859375 L 1.390625 0.328125 L 3.8125 -9.765625 L 10.140625 -8.25 Z M 9.90625 -7.265625 "/></g></g></g><g fill="#000000" fill-opacity="1"><g transform="translate(216.356446, 118.535796)"><g><path d="M 3.375 0.59375 C 3.914062 0.863281 4.414062 0.910156 4.875 0.734375 C 5.332031 0.554688 5.695312 0.1875 5.96875 -0.375 L 9.203125 -7.078125 L 10.1875 -6.609375 L 6.96875 0.0625 C 6.5625 0.90625 5.992188 1.457031 5.265625 1.71875 C 4.546875 1.988281 3.773438 1.925781 2.953125 1.53125 C 2.367188 1.25 1.925781 0.832031 1.625 0.28125 C 1.332031 -0.269531 1.21875 -0.945312 1.28125 -1.75 L 2.3125 -1.8125 C 2.226562 -0.582031 2.582031 0.21875 3.375 0.59375 Z M 3.375 0.59375 "/></g></g></g><g fill="#000000" fill-opacity="1"><g transform="translate(229.727109, 125.784753)"><g><path d="M 12.015625 -2.53125 L 7.75 -5.859375 L 5.546875 -3.015625 L 9.4375 0.015625 L 8.8125 0.8125 L 4.921875 -2.21875 L 2.609375 0.75 L 6.921875 4.109375 L 6.3125 4.90625 L 1.140625 0.875 L 7.5 -7.3125 L 12.625 -3.3125 Z M 12.015625 -2.53125 "/></g></g></g><g fill="#000000" fill-opacity="1"><g transform="translate(242.09562, 136.451867)"><g><path d="M 1.078125 -0.265625 L 11.46875 -0.84375 L 7.65625 -5.453125 L 8.421875 -6.09375 L 13.046875 -0.515625 L 12.28125 0.125 L 1.875 0.6875 L 5.84375 5.5 L 5.078125 6.140625 L 0.3125 0.375 Z M 1.078125 -0.265625 "/></g></g></g><g fill="#000000" fill-opacity="1"><g transform="translate(251.689814, 149.486505)"><g><path d="M 1.21875 2.21875 L 0.6875 1.265625 L 9.765625 -3.75 L 10.296875 -2.796875 Z M 1.21875 2.21875 "/></g></g></g><g fill="#000000" fill-opacity="1"><g transform="translate(256.876236, 159.916179)"><g><path d="M 11.375 4.640625 L 9.6875 -0.5 L 6.28125 0.609375 L 7.8125 5.296875 L 6.84375 5.609375 L 5.3125 0.921875 L 1.734375 2.09375 L 3.421875 7.28125 L 2.46875 7.59375 L 0.453125 1.359375 L 10.3125 -1.859375 L 12.328125 4.328125 Z M 11.375 4.640625 "/></g></g></g><g fill="#000000" fill-opacity="1"><g transform="translate(105.550321, 204.585533)"><g><path d="M 7.5625 1.515625 L 5.5625 0.703125 L 5.859375 -0.015625 L 7.859375 0.78125 L 8 -1.375 L 8.78125 -1.328125 L 8.640625 0.84375 L 10.78125 0.296875 L 10.984375 1.046875 L 8.84375 1.59375 L 10 3.421875 L 9.34375 3.859375 L 8.1875 2.0625 L 6.8125 3.703125 L 6.203125 3.21875 Z M 7.5625 1.515625 "/></g></g></g><g fill="#000000" fill-opacity="1"><g transform="translate(110.388462, 219.83099)"><g><path d="M 7.71875 0.046875 L 5.59375 -0.375 L 5.75 -1.140625 L 7.859375 -0.75 L 7.59375 -2.890625 L 8.375 -2.984375 L 8.640625 -0.828125 L 10.640625 -1.78125 L 10.96875 -1.078125 L 8.96875 -0.125 L 10.484375 1.453125 L 9.921875 1.984375 L 8.4375 0.453125 L 7.390625 2.328125 L 6.703125 1.96875 Z M 7.71875 0.046875 "/></g></g></g><g fill="#000000" fill-opacity="1"><g transform="translate(118.043811, 234.01628)"><g><path d="M 9.0625 -5.265625 L 10.96875 -2.828125 C 11.46875 -2.179688 11.816406 -1.515625 12.015625 -0.828125 C 12.222656 -0.140625 12.289062 0.535156 12.21875 1.203125 C 12.15625 1.867188 11.957031 2.5 11.625 3.09375 C 11.289062 3.6875 10.832031 4.210938 10.25 4.671875 C 9.644531 5.140625 9.003906 5.460938 8.328125 5.640625 C 7.660156 5.816406 6.988281 5.847656 6.3125 5.734375 C 5.644531 5.617188 5.007812 5.378906 4.40625 5.015625 C 3.800781 4.648438 3.265625 4.164062 2.796875 3.5625 L 0.890625 1.125 Z M 2.359375 1.375 L 3.5625 2.90625 C 4.09375 3.59375 4.707031 4.082031 5.40625 4.375 C 6.101562 4.675781 6.804688 4.78125 7.515625 4.6875 C 8.234375 4.59375 8.914062 4.296875 9.5625 3.796875 C 10.175781 3.304688 10.617188 2.726562 10.890625 2.0625 C 11.160156 1.394531 11.238281 0.691406 11.125 -0.046875 C 11.019531 -0.796875 10.691406 -1.523438 10.140625 -2.234375 L 8.9375 -3.765625 Z M 2.359375 1.375 "/></g></g></g><g fill="#000000" fill-opacity="1"><g transform="translate(131.385838, 249.120598)"><g><path d="M 12.0625 -2.34375 L 7.828125 -5.734375 L 5.578125 -2.9375 L 9.4375 0.15625 L 8.8125 0.953125 L 4.953125 -2.140625 L 2.59375 0.796875 L 6.859375 4.203125 L 6.234375 4.984375 L 1.125 0.90625 L 7.609375 -7.1875 L 12.6875 -3.125 Z M 12.0625 -2.34375 "/></g></g></g><g fill="#000000" fill-opacity="1"><g transform="translate(146.222342, 259.714634)"><g><path d="M 4.765625 -9.21875 L 5.84375 -8.703125 L 5.125 1.09375 L 12.328125 -5.609375 L 13.390625 -5.09375 L 5.140625 2.46875 L 4.046875 1.9375 Z M 4.765625 -9.21875 "/></g></g></g><g fill="#000000" fill-opacity="1"><g transform="translate(164.367826, 267.119638)"><g><path d="M 9.78125 -7.4375 L 4.5 -8.609375 L 3.71875 -5.09375 L 8.546875 -4.03125 L 8.328125 -3.046875 L 3.5 -4.109375 L 2.6875 -0.421875 L 8.015625 0.75 L 7.796875 1.71875 L 1.40625 0.3125 L 3.640625 -9.8125 L 9.984375 -8.40625 Z M 9.78125 -7.4375 "/></g></g></g><g fill="#000000" fill-opacity="1"><g transform="translate(182.291734, 270.005014)"><g><path d="M 2.53125 -1 L 7.453125 -0.984375 L 7.453125 0.03125 L 1.4375 0 L 1.484375 -10.375 L 2.578125 -10.359375 Z M 2.53125 -1 "/></g></g></g><g fill="#000000" fill-opacity="1"><g transform="translate(199.461628, 269.223431)"><g><path d="M 9.6875 -7.59375 C 9.851562 -6.875 9.878906 -6.171875 9.765625 -5.484375 C 9.660156 -4.796875 9.429688 -4.160156 9.078125 -3.578125 C 8.722656 -3.003906 8.265625 -2.507812 7.703125 -2.09375 C 7.148438 -1.6875 6.507812 -1.394531 5.78125 -1.21875 C 5.0625 -1.050781 4.363281 -1.03125 3.6875 -1.15625 C 3.007812 -1.28125 2.390625 -1.519531 1.828125 -1.875 C 1.265625 -2.238281 0.78125 -2.695312 0.375 -3.25 C -0.0195312 -3.8125 -0.300781 -4.453125 -0.46875 -5.171875 C -0.632812 -5.898438 -0.660156 -6.609375 -0.546875 -7.296875 C -0.441406 -7.984375 -0.21875 -8.613281 0.125 -9.1875 C 0.476562 -9.769531 0.929688 -10.269531 1.484375 -10.6875 C 2.046875 -11.101562 2.691406 -11.394531 3.421875 -11.5625 C 4.140625 -11.726562 4.835938 -11.75 5.515625 -11.625 C 6.191406 -11.5 6.8125 -11.253906 7.375 -10.890625 C 7.945312 -10.535156 8.429688 -10.078125 8.828125 -9.515625 C 9.222656 -8.960938 9.507812 -8.320312 9.6875 -7.59375 Z M 8.578125 -7.28125 C 8.453125 -7.851562 8.234375 -8.363281 7.921875 -8.8125 C 7.609375 -9.269531 7.226562 -9.648438 6.78125 -9.953125 C 6.34375 -10.265625 5.851562 -10.472656 5.3125 -10.578125 C 4.769531 -10.691406 4.203125 -10.675781 3.609375 -10.53125 C 3.035156 -10.40625 2.53125 -10.175781 2.09375 -9.84375 C 1.664062 -9.519531 1.316406 -9.125 1.046875 -8.65625 C 0.785156 -8.195312 0.613281 -7.695312 0.53125 -7.15625 C 0.457031 -6.625 0.488281 -6.070312 0.625 -5.5 C 0.75 -4.9375 0.96875 -4.421875 1.28125 -3.953125 C 1.59375 -3.484375 1.96875 -3.097656 2.40625 -2.796875 C 2.851562 -2.492188 3.347656 -2.289062 3.890625 -2.1875 C 4.441406 -2.082031 5.007812 -2.097656 5.59375 -2.234375 C 6.175781 -2.367188 6.679688 -2.597656 7.109375 -2.921875 C 7.535156 -3.242188 7.878906 -3.632812 8.140625 -4.09375 C 8.410156 -4.5625 8.582031 -5.066406 8.65625 -5.609375 C 8.738281 -6.160156 8.710938 -6.71875 8.578125 -7.28125 Z M 8.578125 -7.28125 "/></g></g></g><g fill="#000000" fill-opacity="1"><g transform="translate(219.900638, 263.136573)"><g><path d="M 1.28125 -0.65625 L -3.40625 -9.90625 L -0.296875 -11.46875 C 0.453125 -11.851562 1.132812 -12.035156 1.75 -12.015625 C 2.363281 -11.992188 2.890625 -11.828125 3.328125 -11.515625 C 3.773438 -11.210938 4.117188 -10.828125 4.359375 -10.359375 C 4.617188 -9.835938 4.734375 -9.289062 4.703125 -8.71875 C 4.671875 -8.15625 4.460938 -7.613281 4.078125 -7.09375 C 3.703125 -6.570312 3.140625 -6.125 2.390625 -5.75 L 0.4375 -4.75 L 2.265625 -1.140625 Z M -0.015625 -5.65625 L 1.96875 -6.671875 C 2.539062 -6.953125 2.953125 -7.28125 3.203125 -7.65625 C 3.453125 -8.03125 3.585938 -8.40625 3.609375 -8.78125 C 3.628906 -9.15625 3.554688 -9.5 3.390625 -9.8125 C 3.234375 -10.125 3.007812 -10.390625 2.71875 -10.609375 C 2.4375 -10.828125 2.078125 -10.941406 1.640625 -10.953125 C 1.203125 -10.972656 0.679688 -10.832031 0.078125 -10.53125 L -1.96875 -9.484375 Z M -0.015625 -5.65625 "/></g></g></g><g fill="#000000" fill-opacity="1"><g transform="translate(235.8289, 253.88779)"><g><path d="M 0.15625 -12.28125 L -4.015625 -8.84375 L -1.734375 -6.0625 L 2.078125 -9.203125 L 2.734375 -8.421875 L -1.078125 -5.28125 L 1.3125 -2.375 L 5.515625 -5.84375 L 6.15625 -5.078125 L 1.109375 -0.921875 L -5.5 -8.921875 L -0.484375 -13.046875 Z M 0.15625 -12.28125 "/></g></g></g><g fill="#000000" fill-opacity="1"><g transform="translate(249.204525, 241.530241)"><g><path d="M -1.78125 -4.5625 L 1.546875 -2 L 0.875 -1.140625 L -7.34375 -7.46875 L -5.15625 -10.3125 C -4.632812 -10.988281 -4.097656 -11.453125 -3.546875 -11.703125 C -3.003906 -11.960938 -2.472656 -12.050781 -1.953125 -11.96875 C -1.429688 -11.882812 -0.957031 -11.679688 -0.53125 -11.359375 C -0.0625 -11.003906 0.253906 -10.59375 0.421875 -10.125 C 0.597656 -9.65625 0.648438 -9.175781 0.578125 -8.6875 C 0.515625 -8.207031 0.347656 -7.742188 0.078125 -7.296875 L 5.515625 -7.15625 L 4.703125 -6.109375 L -0.484375 -6.25 Z M -2.5625 -5.15625 L -1.09375 -7.0625 C -0.707031 -7.570312 -0.476562 -8.039062 -0.40625 -8.46875 C -0.34375 -8.90625 -0.382812 -9.289062 -0.53125 -9.625 C -0.6875 -9.96875 -0.898438 -10.242188 -1.171875 -10.453125 C -1.441406 -10.671875 -1.75 -10.8125 -2.09375 -10.875 C -2.4375 -10.945312 -2.800781 -10.890625 -3.1875 -10.703125 C -3.582031 -10.523438 -3.984375 -10.171875 -4.390625 -9.640625 L -5.875 -7.703125 Z M -2.5625 -5.15625 "/></g></g></g><g fill="#000000" fill-opacity="1"><g transform="translate(259.79888, 225.896704)"><g><path d="M -4.84375 -6.015625 L -3.8125 -4.09375 L -4.5 -3.734375 L -5.546875 -5.625 L -7.03125 -4.078125 L -7.59375 -4.609375 L -6.078125 -6.203125 L -8.078125 -7.15625 L -7.75 -7.859375 L -5.75 -6.90625 L -5.484375 -9.046875 L -4.703125 -8.953125 L -4.96875 -6.828125 L -2.859375 -7.203125 L -2.703125 -6.4375 Z M -4.84375 -6.015625 "/></g></g></g><g fill="#000000" fill-opacity="1"><g transform="translate(265.856931, 211.093599)"><g><path d="M -5.90625 -4.984375 L -4.53125 -3.296875 L -5.140625 -2.796875 L -6.515625 -4.46875 L -7.6875 -2.65625 L -8.34375 -3.078125 L -7.171875 -4.90625 L -9.3125 -5.453125 L -9.109375 -6.203125 L -6.96875 -5.65625 L -7.125 -7.828125 L -6.34375 -7.890625 L -6.1875 -5.75 L -4.1875 -6.515625 L -3.890625 -5.8125 Z M -5.90625 -4.984375 "/></g></g></g><g fill="#000000" fill-opacity="1"><g transform="translate(203.400495, 206.464903)"><g><path d="M 31.546875 -39.734375 L 31.546875 -34.625 L 11.046875 -34.625 L 11.046875 -22.53125 L 29.34375 -22.53125 L 29.34375 -17.421875 L 11.046875 -17.421875 L 11.046875 -5.171875 L 32.3125 -5.171875 L 32.3125 0 L 5.71875 0 L 5.71875 -39.734375 Z M 31.546875 -39.734375 "/></g></g></g><g fill="#000000" fill-opacity="1"><g transform="translate(133.240748, 206.464903)"><g><path d="M 5.71875 -39.734375 L 16.59375 -39.734375 C 21.539062 -39.734375 25.632812 -38.75 28.875 -36.78125 C 32.113281 -34.820312 34.472656 -32.296875 35.953125 -29.203125 C 37.441406 -26.109375 38.1875 -22.84375 38.1875 -19.40625 C 38.1875 -15.550781 37.289062 -12.148438 35.5 -9.203125 C 33.707031 -6.253906 31.304688 -3.984375 28.296875 -2.390625 C 25.296875 -0.796875 22.035156 0 18.515625 0 L 5.71875 0 Z M 17.46875 -5.171875 C 20.40625 -5.171875 23.023438 -5.742188 25.328125 -6.890625 C 27.640625 -8.046875 29.445312 -9.722656 30.75 -11.921875 C 32.050781 -14.117188 32.703125 -16.738281 32.703125 -19.78125 C 32.703125 -22.894531 32.019531 -25.566406 30.65625 -27.796875 C 29.300781 -30.035156 27.5 -31.734375 25.25 -32.890625 C 23 -34.046875 20.570312 -34.625 17.96875 -34.625 L 11.046875 -34.625 L 11.046875 -5.171875 Z M 17.46875 -5.171875 "/></g></g></g><path stroke-linecap="butt" transform="matrix(0, -0.75, 0.75, 0, 186.746858, 231.803538)" fill="none" stroke-linejoin="miter" d="M -0.00153216 0.998981 L 118.149517 0.998981 " stroke="#000000" stroke-width="2" stroke-opacity="1" stroke-miterlimit="4"/></svg>