<svg xmlns="http://www.w3.org/2000/svg" xmlns:xlink="http://www.w3.org/1999/xlink" width="200" zoomAndPan="magnify" viewBox="0 0 375 374.999991" height="200" preserveAspectRatio="xMidYMid meet" version="1.0"><defs><g/><clipPath id="66c0160731"><path d="M 51 58 L 318 58 L 318 325 L 51 325 Z M 51 58 " clip-rule="nonzero"/></clipPath><clipPath id="fa0e4a2465"><path d="M 188.445312 1.929688 L 334.148438 154.199219 L 140.148438 339.824219 L -5.550781 187.554688 Z M 188.445312 1.929688 " clip-rule="nonzero"/></clipPath><clipPath id="39df90d673"><path d="M 188.445312 1.929688 L 374.074219 195.925781 L 180.074219 381.550781 L -5.550781 187.554688 Z M 188.445312 1.929688 " clip-rule="nonzero"/></clipPath><clipPath id="d7f40692cc"><path d="M 243.648438 211.566406 L 256.839844 211.566406 L 256.839844 224.757812 L 243.648438 224.757812 Z M 243.648438 211.566406 " clip-rule="nonzero"/></clipPath><clipPath id="fff28aa123"><path d="M 250.246094 211.566406 C 246.601562 211.566406 243.648438 214.519531 243.648438 218.164062 C 243.648438 221.804688 246.601562 224.757812 250.246094 224.757812 C 253.886719 224.757812 256.839844 221.804688 256.839844 218.164062 C 256.839844 214.519531 253.886719 211.566406 250.246094 211.566406 Z M 250.246094 211.566406 " clip-rule="nonzero"/></clipPath></defs><g clip-path="url(#66c0160731)"><g clip-path="url(#fa0e4a2465)"><g clip-path="url(#39df90d673)"><path fill="#000000" d="M 245.402344 307.125 C 234.6875 312.671875 223.164062 316.511719 211.402344 318.851562 C 201.777344 320.699219 192.007812 321.675781 182.226562 321.628906 C 180.921875 321.660156 179.625 321.546875 178.324219 321.5 C 177.023438 321.429688 175.722656 321.398438 174.421875 321.300781 L 170.535156 320.945312 L 168.589844 320.765625 L 166.65625 320.5 L 162.789062 319.984375 C 161.503906 319.78125 160.226562 319.527344 158.941406 319.308594 C 156.367188 318.90625 153.839844 318.277344 151.289062 317.734375 C 150.925781 317.65625 150.542969 317.570312 150.140625 317.484375 C 149.746094 317.375 149.335938 317.261719 148.90625 317.144531 C 148.050781 316.910156 147.132812 316.65625 146.152344 316.386719 C 144.183594 315.890625 142.039062 315.125 139.671875 314.34375 C 139.085938 314.140625 138.476562 313.957031 137.867188 313.726562 C 137.265625 313.492188 136.648438 313.25 136.023438 313.003906 C 134.769531 312.511719 133.46875 312 132.128906 311.472656 C 129.519531 310.261719 126.679688 309.113281 123.871094 307.585938 C 112.402344 301.910156 100.074219 292.925781 89.613281 282.085938 C 79.242188 271.15625 70.8125 258.445312 65.644531 246.738281 C 64.246094 243.859375 63.222656 240.972656 62.125 238.3125 C 61.660156 236.949219 61.207031 235.632812 60.769531 234.359375 C 60.550781 233.71875 60.335938 233.09375 60.128906 232.480469 C 59.925781 231.867188 59.769531 231.25 59.59375 230.652344 C 58.917969 228.253906 58.242188 226.078125 57.835938 224.085938 C 57.609375 223.097656 57.398438 222.167969 57.199219 221.304688 C 57.101562 220.871094 57.007812 220.457031 56.917969 220.054688 C 56.847656 219.652344 56.78125 219.265625 56.714844 218.894531 C 54.933594 209.273438 54.019531 199.507812 54.132812 189.722656 C 54.355469 179.304688 55.859375 168.949219 58.25 158.792969 C 61.105469 147.144531 65.453125 135.800781 71.464844 125.34375 C 77.351562 114.808594 84.96875 105.257812 93.644531 96.808594 C 102.46875 88.515625 112.347656 81.324219 123.128906 75.90625 C 133.84375 70.363281 145.367188 66.519531 157.128906 64.183594 C 166.753906 62.335938 176.523438 61.355469 186.304688 61.402344 C 187.605469 61.371094 188.90625 61.484375 190.207031 61.53125 C 191.507812 61.601562 192.808594 61.632812 194.105469 61.730469 L 197.996094 62.089844 L 199.941406 62.265625 L 201.875 62.53125 L 205.742188 63.050781 C 207.027344 63.25 208.304688 63.503906 209.589844 63.726562 C 212.164062 64.125 214.691406 64.753906 217.238281 65.296875 C 217.605469 65.378906 217.988281 65.460938 218.390625 65.550781 C 218.785156 65.65625 219.195312 65.769531 219.625 65.886719 C 220.480469 66.121094 221.398438 66.375 222.378906 66.644531 C 224.347656 67.140625 226.492188 67.910156 228.859375 68.6875 C 229.445312 68.890625 230.054688 69.078125 230.664062 69.304688 C 231.265625 69.542969 231.882812 69.78125 232.507812 70.027344 C 233.761719 70.519531 235.0625 71.03125 236.402344 71.558594 C 239.011719 72.769531 241.851562 73.917969 244.660156 75.445312 C 256.128906 81.121094 268.457031 90.105469 278.917969 100.949219 C 289.289062 111.875 297.71875 124.589844 302.882812 136.296875 C 304.285156 139.171875 305.308594 142.058594 306.40625 144.71875 C 306.871094 146.082031 307.324219 147.402344 307.761719 148.675781 C 307.980469 149.3125 308.191406 149.9375 308.402344 150.550781 C 308.605469 151.167969 308.761719 151.785156 308.9375 152.378906 C 309.613281 154.777344 310.289062 156.953125 310.695312 158.945312 C 310.921875 159.933594 311.132812 160.863281 311.332031 161.726562 C 311.429688 162.160156 311.523438 162.578125 311.613281 162.976562 C 311.683594 163.378906 311.75 163.769531 311.816406 164.136719 C 313.597656 173.757812 314.511719 183.527344 314.398438 193.308594 C 314.175781 203.726562 312.671875 214.085938 310.28125 224.238281 C 307.425781 235.886719 303.078125 247.230469 297.066406 257.6875 C 291.179688 268.222656 283.5625 277.777344 274.886719 286.222656 C 266.0625 294.519531 256.183594 301.707031 245.402344 307.125 Z M 277.03125 288.339844 L 277.039062 288.328125 C 285.894531 279.703125 293.683594 269.949219 299.71875 259.191406 C 305.871094 248.507812 310.320312 236.90625 313.199219 224.996094 L 314.453125 219.394531 C 314.453125 219.394531 314.746094 217.84375 315.1875 215.515625 C 315.691406 213.195312 316.039062 210.050781 316.5 206.925781 C 316.765625 203.777344 317.144531 200.640625 317.183594 198.269531 C 317.289062 195.90625 317.355469 194.328125 317.355469 194.328125 C 317.355469 194.328125 317.367188 193.933594 317.371094 193.242188 C 317.371094 192.554688 317.378906 191.566406 317.382812 190.382812 C 317.457031 188.011719 317.265625 184.863281 317.140625 181.707031 C 317.03125 180.132812 316.863281 178.5625 316.738281 177.085938 C 316.671875 176.351562 316.605469 175.636719 316.542969 174.960938 C 316.449219 174.289062 316.359375 173.65625 316.277344 173.070312 C 315.953125 170.722656 315.734375 169.160156 315.734375 169.160156 C 315.734375 169.160156 315.707031 168.800781 315.605469 168.273438 C 315.511719 167.746094 315.386719 167.039062 315.265625 166.335938 C 315.019531 164.921875 314.769531 163.507812 314.769531 163.507812 C 314.703125 163.132812 314.636719 162.734375 314.566406 162.320312 C 314.476562 161.910156 314.382812 161.484375 314.28125 161.042969 C 314.082031 160.15625 313.867188 159.207031 313.636719 158.195312 C 313.222656 156.15625 312.539062 153.925781 311.851562 151.472656 C 311.671875 150.863281 311.507812 150.230469 311.304688 149.601562 C 311.089844 148.972656 310.871094 148.328125 310.652344 147.679688 C 310.207031 146.375 309.742188 145.023438 309.265625 143.628906 C 308.148438 140.902344 307.101562 137.949219 305.671875 135 C 300.390625 123.015625 291.765625 109.992188 281.148438 98.8125 C 270.449219 87.714844 257.820312 78.523438 246.074219 72.71875 C 243.195312 71.164062 240.289062 69.984375 237.617188 68.75 C 236.246094 68.210938 234.914062 67.6875 233.632812 67.1875 C 232.988281 66.9375 232.359375 66.691406 231.742188 66.449219 C 231.121094 66.214844 230.496094 66.027344 229.894531 65.820312 C 227.472656 65.023438 225.277344 64.242188 223.257812 63.738281 C 222.257812 63.464844 221.316406 63.207031 220.4375 62.96875 C 220.003906 62.851562 219.578125 62.738281 219.175781 62.628906 C 218.765625 62.539062 218.371094 62.453125 217.996094 62.371094 C 217.996094 62.371094 216.597656 62.0625 215.199219 61.753906 C 214.5 61.601562 213.800781 61.445312 213.273438 61.328125 C 212.753906 61.203125 212.394531 61.160156 212.394531 61.160156 C 212.394531 61.160156 210.84375 60.875 208.515625 60.445312 C 207.933594 60.335938 207.300781 60.21875 206.636719 60.097656 C 205.960938 60.003906 205.253906 59.910156 204.519531 59.808594 C 203.050781 59.617188 201.492188 59.382812 199.921875 59.203125 C 196.777344 58.941406 193.636719 58.605469 191.265625 58.578125 C 190.082031 58.53125 189.097656 58.492188 188.40625 58.464844 C 187.71875 58.4375 187.324219 58.429688 187.324219 58.429688 C 187.324219 58.429688 185.746094 58.429688 183.378906 58.429688 C 181.007812 58.363281 177.855469 58.605469 174.699219 58.730469 C 171.558594 59.054688 168.402344 59.261719 166.0625 59.664062 C 163.714844 60 162.152344 60.226562 162.152344 60.226562 L 156.5 61.230469 C 144.476562 63.585938 132.691406 67.515625 121.746094 73.191406 C 110.734375 78.746094 100.644531 86.097656 91.636719 94.566406 L 91.625 94.570312 L 91.492188 94.703125 C 82.636719 103.332031 74.84375 113.085938 68.8125 123.84375 C 62.660156 134.527344 58.210938 146.125 55.332031 158.035156 L 54.078125 163.636719 C 54.078125 163.636719 53.785156 165.191406 53.34375 167.519531 C 52.839844 169.839844 52.492188 172.980469 52.03125 176.105469 C 51.765625 179.253906 51.386719 182.390625 51.347656 184.761719 C 51.246094 187.125 51.175781 188.703125 51.175781 188.703125 C 51.175781 188.703125 51.164062 189.097656 51.160156 189.789062 C 51.15625 190.480469 51.152344 191.464844 51.148438 192.648438 C 51.074219 195.019531 51.265625 198.171875 51.390625 201.324219 C 51.5 202.898438 51.667969 204.46875 51.792969 205.945312 C 51.859375 206.683594 51.925781 207.394531 51.988281 208.070312 C 52.082031 208.742188 52.171875 209.375 52.253906 209.964844 C 52.578125 212.308594 52.796875 213.871094 52.796875 213.871094 C 52.796875 213.871094 52.824219 214.230469 52.925781 214.757812 C 53.019531 215.289062 53.144531 215.992188 53.265625 216.699219 C 53.511719 218.109375 53.761719 219.523438 53.761719 219.523438 C 53.824219 219.902344 53.894531 220.296875 53.964844 220.710938 C 54.054688 221.121094 54.148438 221.546875 54.25 221.988281 C 54.449219 222.875 54.664062 223.824219 54.894531 224.839844 C 55.308594 226.875 55.992188 229.105469 56.679688 231.558594 C 56.859375 232.171875 57.023438 232.800781 57.226562 233.433594 C 57.441406 234.0625 57.660156 234.703125 57.878906 235.355469 C 58.324219 236.660156 58.789062 238.011719 59.265625 239.40625 C 60.382812 242.128906 61.429688 245.082031 62.859375 248.03125 C 68.140625 260.015625 76.769531 273.039062 87.378906 284.21875 C 98.082031 295.316406 110.710938 304.507812 122.453125 310.3125 C 125.335938 311.871094 128.242188 313.046875 130.914062 314.285156 C 132.285156 314.824219 133.613281 315.34375 134.898438 315.847656 C 135.542969 316.097656 136.171875 316.34375 136.789062 316.582031 C 137.410156 316.816406 138.035156 317.007812 138.636719 317.210938 C 141.058594 318.007812 143.253906 318.789062 145.273438 319.292969 C 146.273438 319.566406 147.214844 319.824219 148.089844 320.0625 C 148.527344 320.179688 148.953125 320.296875 149.355469 320.402344 C 149.765625 320.492188 150.160156 320.578125 150.535156 320.660156 C 150.535156 320.660156 151.933594 320.96875 153.332031 321.277344 C 154.03125 321.433594 154.730469 321.585938 155.257812 321.703125 C 155.777344 321.828125 156.136719 321.871094 156.136719 321.871094 C 156.136719 321.871094 157.6875 322.160156 160.015625 322.589844 C 160.597656 322.695312 161.230469 322.8125 161.894531 322.933594 C 162.570312 323.027344 163.277344 323.125 164.011719 323.222656 C 165.480469 323.414062 167.039062 323.648438 168.609375 323.828125 C 171.753906 324.09375 174.894531 324.425781 177.265625 324.457031 C 178.449219 324.503906 179.433594 324.539062 180.121094 324.566406 C 180.8125 324.597656 181.207031 324.601562 181.207031 324.601562 C 181.207031 324.601562 182.785156 324.601562 185.152344 324.601562 C 187.523438 324.667969 190.675781 324.429688 193.832031 324.300781 C 196.972656 323.980469 200.128906 323.769531 202.46875 323.367188 C 204.816406 323.03125 206.378906 322.808594 206.378906 322.808594 L 212.03125 321.800781 C 224.054688 319.449219 235.839844 315.515625 246.785156 309.839844 C 257.796875 304.285156 267.886719 296.933594 276.894531 288.464844 L 276.902344 288.460938 L 276.96875 288.402344 L 277.03125 288.339844 " fill-opacity="1" fill-rule="nonzero"/></g></g></g><g fill="#000000" fill-opacity="1"><g transform="translate(161.074008, 324.239804)"><g><path d="M 1.609375 0.109375 L 2.671875 -15.265625 L 8.25 -14.875 C 9.507812 -14.789062 10.59375 -14.515625 11.5 -14.046875 C 12.414062 -13.578125 13.164062 -12.972656 13.75 -12.234375 C 14.34375 -11.492188 14.765625 -10.648438 15.015625 -9.703125 C 15.273438 -8.753906 15.367188 -7.75 15.296875 -6.6875 C 15.210938 -5.519531 14.960938 -4.476562 14.546875 -3.5625 C 14.128906 -2.644531 13.5625 -1.867188 12.84375 -1.234375 C 12.132812 -0.609375 11.300781 -0.144531 10.34375 0.15625 C 9.394531 0.457031 8.34375 0.570312 7.1875 0.5 Z M 12.28125 -6.890625 C 12.332031 -7.628906 12.273438 -8.316406 12.109375 -8.953125 C 11.953125 -9.585938 11.691406 -10.140625 11.328125 -10.609375 C 10.972656 -11.085938 10.519531 -11.46875 9.96875 -11.75 C 9.425781 -12.039062 8.789062 -12.207031 8.0625 -12.25 L 5.453125 -12.4375 L 4.765625 -2.3125 L 7.375 -2.125 C 8.113281 -2.070312 8.773438 -2.15625 9.359375 -2.375 C 9.941406 -2.59375 10.4375 -2.914062 10.84375 -3.34375 C 11.257812 -3.78125 11.585938 -4.300781 11.828125 -4.90625 C 12.078125 -5.507812 12.226562 -6.171875 12.28125 -6.890625 Z M 12.28125 -6.890625 "/></g></g></g><g fill="#000000" fill-opacity="1"><g transform="translate(186.447372, 325.057911)"><g><path d="M 4.25 -15.96875 L 6.890625 -16.265625 L 14.40625 -1.609375 L 11.34375 -1.265625 L 9.5 -4.921875 L 4.140625 -4.328125 L 3.171875 -0.359375 L 0.109375 -0.015625 Z M 8.71875 -6.96875 L 5.9375 -12.734375 L 4.40625 -6.484375 Z M 8.71875 -6.96875 "/></g></g></g><g fill="#000000" fill-opacity="1"><g transform="translate(210.596405, 321.492378)"><g><path d="M -1.3125 -15.671875 L 6 -5.6875 L 6.640625 -18.015625 L 9.65625 -18.90625 L 8.25 -2.4375 L 5.84375 -1.734375 L -4.328125 -14.78125 Z M -1.3125 -15.671875 "/></g></g></g><g fill="#000000" fill-opacity="1"><g transform="translate(233.773406, 313.692461)"><g><path d="M 9.890625 -7.8125 L 11.046875 -5.453125 L 1.4375 -0.71875 L -5.375 -14.53125 L 4.046875 -19.171875 L 5.203125 -16.828125 L -1.53125 -13.5 L 0.109375 -10.171875 L 5.9375 -13.046875 L 7.015625 -10.859375 L 1.1875 -7.984375 L 2.96875 -4.390625 Z M 9.890625 -7.8125 "/></g></g></g><g fill="#000000" fill-opacity="1"><g transform="translate(253.608081, 302.897031)"><g/></g></g><g fill="#000000" fill-opacity="1"><g transform="translate(265.644157, 294.323944)"><g><path d="M 7.4375 -10.140625 L 9.1875 -8.1875 L 1.203125 -1.078125 L -9.046875 -12.578125 L -1.203125 -19.5625 L 0.546875 -17.609375 L -5.078125 -12.609375 L -2.625 -9.84375 L 2.234375 -14.15625 L 3.859375 -12.328125 L -1 -8.015625 L 1.671875 -5.015625 Z M 7.4375 -10.140625 "/></g></g></g><g fill="#000000" fill-opacity="1"><g transform="translate(282.0337, 278.581737)"><g><path d="M -1.890625 -2.640625 C -1.660156 -2.703125 -1.328125 -2.863281 -0.890625 -3.125 C -0.453125 -3.382812 -0.0351562 -3.753906 0.359375 -4.234375 C 0.742188 -4.703125 0.96875 -5.140625 1.03125 -5.546875 C 1.101562 -5.953125 1.03125 -6.367188 0.8125 -6.796875 C 0.59375 -7.222656 0.253906 -7.660156 -0.203125 -8.109375 C -0.660156 -8.554688 -1.226562 -9.0625 -1.90625 -9.625 L -7.953125 -14.59375 L -6.0625 -16.90625 L -0.015625 -11.9375 C 0.890625 -11.1875 1.675781 -10.457031 2.34375 -9.75 C 3.019531 -9.050781 3.492188 -8.332031 3.765625 -7.59375 C 4.035156 -6.851562 4.078125 -6.070312 3.890625 -5.25 C 3.710938 -4.425781 3.21875 -3.523438 2.40625 -2.546875 C 1.582031 -1.546875 0.625 -0.890625 -0.46875 -0.578125 Z M -1.890625 -2.640625 "/></g></g></g><g fill="#000000" fill-opacity="1"><g transform="translate(294.427757, 262.442039)"><g><path d="M 3.984375 -11.9375 L 6.25 -10.609375 L 0.8125 -1.390625 L -12.46875 -9.203125 L -7.140625 -18.25 L -4.875 -16.921875 L -8.6875 -10.4375 L -5.5 -8.5625 L -2.203125 -14.171875 L -0.09375 -12.9375 L -3.390625 -7.328125 L 0.0625 -5.28125 Z M 3.984375 -11.9375 "/></g></g></g><g fill="#000000" fill-opacity="1"><g transform="translate(305.305048, 242.396864)"><g><path d="M -1.875 -1.40625 L -8.59375 -13.296875 L -11.625 -5.390625 L -14.078125 -6.328125 L -9.8125 -17.46875 L -7.703125 -16.671875 L -0.890625 -5.03125 L 2.140625 -12.96875 L 4.59375 -12.03125 L 0.234375 -0.609375 Z M -1.875 -1.40625 "/></g></g></g><g fill="#000000" fill-opacity="1"><g transform="translate(312.701564, 220.42303)"><g><path d="M 0.359375 -1.5625 L -14.65625 -4.984375 L -14 -7.90625 L 1.015625 -4.484375 Z M 0.359375 -1.5625 "/></g></g></g><g fill="#000000" fill-opacity="1"><g transform="translate(315.802179, 204.932858)"><g><path d="M -1.5625 -12.484375 L 1.046875 -12.265625 L 0.140625 -1.609375 L -15.203125 -2.921875 L -14.3125 -13.375 L -11.703125 -13.15625 L -12.34375 -5.671875 L -8.65625 -5.359375 L -8.09375 -11.828125 L -5.65625 -11.609375 L -6.21875 -5.140625 L -2.21875 -4.796875 Z M -1.5625 -12.484375 "/></g></g></g><g fill="#000000" fill-opacity="1"><g transform="translate(316.829507, 182.373555)"><g/></g></g><g fill="#000000" fill-opacity="1"><g transform="translate(98.513749, 223.082618)"><g><path d="M 41.21875 -93.21875 C 47.664062 -93.21875 53.367188 -91.960938 58.328125 -89.453125 C 63.285156 -86.953125 67.445312 -83.519531 70.8125 -79.15625 C 74.175781 -74.789062 76.726562 -69.800781 78.46875 -64.1875 C 80.207031 -58.570312 81.078125 -52.628906 81.078125 -46.359375 C 81.078125 -39.859375 80.25 -33.753906 78.59375 -28.046875 C 76.945312 -22.347656 74.507812 -17.316406 71.28125 -12.953125 C 68.0625 -8.597656 64.082031 -5.175781 59.34375 -2.6875 C 54.613281 -0.207031 49.171875 1.03125 43.015625 1.03125 C 38.972656 1.03125 34.753906 0.601562 30.359375 -0.25 C 25.972656 -1.113281 21.8125 -2.5 17.875 -4.40625 C 13.9375 -6.3125 10.660156 -8.804688 8.046875 -11.890625 C 7.703125 -12.234375 7.53125 -12.578125 7.53125 -12.921875 C 7.53125 -13.597656 7.867188 -14.117188 8.546875 -14.484375 C 9.234375 -14.859375 9.914062 -15.1875 10.59375 -15.46875 C 11.28125 -15.757812 11.625 -16.101562 11.625 -16.5 C 12.144531 -21.238281 12.515625 -26.328125 12.734375 -31.765625 C 12.960938 -37.210938 13.078125 -42.332031 13.078125 -47.125 C 13.078125 -52.9375 13.035156 -58.734375 12.953125 -64.515625 C 12.867188 -70.304688 12.457031 -76.140625 11.71875 -82.015625 C 11.65625 -82.585938 11.738281 -83.113281 11.96875 -83.59375 C 12.195312 -84.082031 12.625 -84.554688 13.25 -85.015625 C 15.644531 -86.773438 18.46875 -88.269531 21.71875 -89.5 C 24.96875 -90.726562 28.316406 -91.65625 31.765625 -92.28125 C 35.222656 -92.90625 38.375 -93.21875 41.21875 -93.21875 Z M 44.90625 -3.9375 C 49.125 -3.9375 52.8125 -4.789062 55.96875 -6.5 C 59.132812 -8.207031 61.828125 -10.5 64.046875 -13.375 C 66.273438 -16.257812 68.085938 -19.507812 69.484375 -23.125 C 70.878906 -26.75 71.90625 -30.5 72.5625 -34.375 C 73.21875 -38.257812 73.546875 -41.992188 73.546875 -45.578125 C 73.546875 -49.398438 73.132812 -53.304688 72.3125 -57.296875 C 71.488281 -61.285156 70.21875 -65.117188 68.5 -68.796875 C 66.789062 -72.484375 64.597656 -75.789062 61.921875 -78.71875 C 59.242188 -81.65625 56.050781 -83.976562 52.34375 -85.6875 C 48.632812 -87.40625 44.382812 -88.265625 39.59375 -88.265625 C 37.375 -88.265625 34.976562 -88.019531 32.40625 -87.53125 C 29.84375 -87.050781 27.390625 -86.394531 25.046875 -85.5625 C 22.710938 -84.738281 20.75 -83.785156 19.15625 -82.703125 C 19.613281 -77.003906 20 -71.273438 20.3125 -65.515625 C 20.625 -59.753906 20.78125 -53.992188 20.78125 -48.234375 C 20.78125 -42.359375 20.609375 -36.171875 20.265625 -29.671875 C 19.921875 -23.171875 19.351562 -17.046875 18.5625 -11.296875 C 20.664062 -9.460938 23.203125 -8.003906 26.171875 -6.921875 C 29.140625 -5.835938 32.273438 -5.066406 35.578125 -4.609375 C 38.890625 -4.160156 42 -3.9375 44.90625 -3.9375 Z M 44.90625 -3.9375 "/></g></g></g><g fill="#000000" fill-opacity="1"><g transform="translate(177.72046, 223.082618)"><g><path d="M 62 -18.046875 C 62.289062 -19.066406 62.863281 -19.820312 63.71875 -20.3125 C 64.570312 -20.800781 65.484375 -21.046875 66.453125 -21.046875 C 67.191406 -21.046875 67.945312 -20.859375 68.71875 -20.484375 C 69.488281 -20.109375 69.757812 -19.492188 69.53125 -18.640625 C 68.613281 -15.160156 67.054688 -12.140625 64.859375 -9.578125 C 62.671875 -7.015625 60.066406 -4.90625 57.046875 -3.25 C 54.023438 -1.59375 50.832031 -0.351562 47.46875 0.46875 C 44.101562 1.289062 40.738281 1.703125 37.375 1.703125 C 31.675781 1.703125 26.859375 0.460938 22.921875 -2.015625 C 18.984375 -4.492188 15.929688 -7.898438 13.765625 -12.234375 C 11.597656 -16.566406 10.257812 -21.46875 9.75 -26.9375 C 9.582031 -29.050781 9.484375 -31.742188 9.453125 -35.015625 C 9.421875 -38.296875 9.472656 -41.890625 9.609375 -45.796875 C 9.753906 -49.703125 9.957031 -53.734375 10.21875 -57.890625 C 10.476562 -62.054688 10.765625 -66.109375 11.078125 -70.046875 C 11.390625 -73.984375 11.71875 -77.578125 12.0625 -80.828125 C 12.40625 -84.078125 12.71875 -86.726562 13 -88.78125 C 13.113281 -89.75 13.613281 -90.457031 14.5 -90.90625 C 15.382812 -91.363281 16.253906 -91.679688 17.109375 -91.859375 C 20.921875 -92.484375 24.738281 -92.910156 28.5625 -93.140625 C 32.382812 -93.367188 36.234375 -93.484375 40.109375 -93.484375 C 44.390625 -93.484375 48.664062 -93.394531 52.9375 -93.21875 C 57.21875 -93.050781 61.46875 -92.625 65.6875 -91.9375 C 66.476562 -91.820312 67.144531 -91.476562 67.6875 -90.90625 C 68.226562 -90.34375 68.300781 -89.632812 67.90625 -88.78125 C 67.445312 -87.8125 66.773438 -87.195312 65.890625 -86.9375 C 65.015625 -86.675781 64.09375 -86.546875 63.125 -86.546875 C 59.351562 -87.117188 55.53125 -87.546875 51.65625 -87.828125 C 47.78125 -88.117188 43.90625 -88.265625 40.03125 -88.265625 C 36.71875 -88.265625 33.378906 -88.148438 30.015625 -87.921875 C 26.648438 -87.691406 23.34375 -87.347656 20.09375 -86.890625 C 19.351562 -81.191406 18.796875 -75.460938 18.421875 -69.703125 C 18.054688 -63.941406 17.644531 -58.007812 17.1875 -51.90625 C 19.863281 -51 22.6875 -50.316406 25.65625 -49.859375 C 28.625 -49.398438 31.644531 -49.171875 34.71875 -49.171875 C 41.84375 -49.171875 48.882812 -50.226562 55.84375 -52.34375 C 56.414062 -52.457031 56.988281 -52.515625 57.5625 -52.515625 C 58.1875 -52.515625 58.753906 -52.425781 59.265625 -52.25 C 59.773438 -52.082031 60.085938 -51.710938 60.203125 -51.140625 C 60.378906 -50.398438 60.050781 -49.742188 59.21875 -49.171875 C 58.394531 -48.609375 57.671875 -48.269531 57.046875 -48.15625 C 53.222656 -47.070312 49.242188 -46.203125 45.109375 -45.546875 C 40.984375 -44.890625 36.804688 -44.5625 32.578125 -44.5625 C 29.960938 -44.5625 27.34375 -44.703125 24.71875 -44.984375 C 22.09375 -45.265625 19.523438 -45.691406 17.015625 -46.265625 C 16.898438 -43.359375 16.84375 -40.460938 16.84375 -37.578125 C 16.84375 -34.703125 16.957031 -31.84375 17.1875 -29 C 17.476562 -26.144531 18.0625 -23.265625 18.9375 -20.359375 C 19.820312 -17.453125 21.078125 -14.769531 22.703125 -12.3125 C 24.328125 -9.863281 26.378906 -7.867188 28.859375 -6.328125 C 31.335938 -4.785156 34.316406 -3.957031 37.796875 -3.84375 C 40.191406 -3.84375 42.65625 -4.082031 45.1875 -4.5625 C 47.726562 -5.050781 50.140625 -5.835938 52.421875 -6.921875 C 54.703125 -8.003906 56.679688 -9.457031 58.359375 -11.28125 C 60.046875 -13.113281 61.257812 -15.367188 62 -18.046875 Z M 62 -18.046875 "/></g></g></g><g clip-path="url(#d7f40692cc)"><g clip-path="url(#fff28aa123)"><path fill="#000000" d="M 243.648438 211.566406 L 256.839844 211.566406 L 256.839844 224.757812 L 243.648438 224.757812 Z M 243.648438 211.566406 " fill-opacity="1" fill-rule="nonzero"/></g></g></svg>